# xmcd CD database file
#
# Track frame offsets:
#	150
#	14180
#	30216
#	42209
#	56763
#	72947
#	87307
#	100215
#	115387
#	129323
#	143181
#	156958
#	168560
#	181596
#	185713
#	197759
#	211659
#	223069
#	235616
#	248766
#	265686
#	277656
#	291566
#
# Disc length: 4069 seconds
#
# Revision: 0
# Processed by: cddbd v1.5.1PL0 Copyright (c) Steve Scherf et al.
# Submitted via: CDex 1.51
#
DISCID=4e0fe317
DTITLE=Michael Lande's Rhythm Club Orchestra [STOMP OFF CD1327] - Black and Blue Rhythm
DYEAR=1997
DGENRE=Jazz
TTITLE0=Keep Your Tempher
TTITLE1=Black and Blue Rhythm
TTITLE2=I'll Make Fund For You
TTITLE3=Gold Digger
TTITLE4=Take Me Away From The River
TTITLE5=Baby Dear
TTITLE6=Jubilee Stomp
TTITLE7=What Is This Thing Called Love?
TTITLE8=Crying And Sighing
TTITLE9=White Jazz
TTITLE10=Sentimental Gentleman From Georgia
TTITLE11=I'd Rather Cry Over You
TTITLE12=Buffalo Rhythm
TTITLE13=Happy Feet
TTITLE14=Rumba Negro
TTITLE15=That Certain Motion
TTITLE16=Some Sweet Day
TTITLE17=Limehouse Blues
TTITLE18=Imagination
TTITLE19=The Boy In The Boat
TTITLE20=Stop Kidding
TTITLE21=Doin' The Voom Voom
TTITLE22=Too Late
EXTD=YEAR: 1997
EXTT0=
EXTT1=
EXTT2=
EXTT3=
EXTT4=
EXTT5=
EXTT6=
EXTT7=
EXTT8=
EXTT9=
EXTT10=
EXTT11=
EXTT12=
EXTT13=
EXTT14=
EXTT15=
EXTT16=
EXTT17=
EXTT18=
EXTT19=
EXTT20=
EXTT21=
EXTT22=
PLAYORDER=
